<svg width="72" height="72" viewBox="0 0 72 72" fill="none" xmlns="http://www.w3.org/2000/svg">
<path d="M10.8 32.3998C14.7712 32.3998 18 29.1711 18 25.1998C18 21.2286 14.7712 17.9998 10.8 17.9998C6.82875 17.9998 3.6 21.2286 3.6 25.1998C3.6 29.1711 6.82875 32.3998 10.8 32.3998ZM61.2 32.3998C65.1712 32.3998 68.4 29.1711 68.4 25.1998C68.4 21.2286 65.1712 17.9998 61.2 17.9998C57.2287 17.9998 54 21.2286 54 25.1998C54 29.1711 57.2287 32.3998 61.2 32.3998ZM64.8 35.9998H57.6C55.62 35.9998 53.8312 36.7986 52.5262 38.0923C57.06 40.5786 60.2775 45.0673 60.975 50.3998H68.4C70.3912 50.3998 72 48.7911 72 46.7998V43.1998C72 39.2286 68.7712 35.9998 64.8 35.9998ZM36 35.9998C42.9637 35.9998 48.6 30.3636 48.6 23.3998C48.6 16.4361 42.9637 10.7998 36 10.7998C29.0362 10.7998 23.4 16.4361 23.4 23.3998C23.4 30.3636 29.0362 35.9998 36 35.9998ZM44.64 39.5998H43.7062C41.3662 40.7248 38.7675 41.3998 36 41.3998C33.2325 41.3998 30.645 40.7248 28.2937 39.5998H27.36C20.205 39.5998 14.4 45.4048 14.4 52.5598V55.7998C14.4 58.7811 16.8187 61.1998 19.8 61.1998H52.2C55.1812 61.1998 57.6 58.7811 57.6 55.7998V52.5598C57.6 45.4048 51.795 39.5998 44.64 39.5998ZM19.4738 38.0923C18.1688 36.7986 16.38 35.9998 14.4 35.9998H7.2C3.22875 35.9998 0 39.2286 0 43.1998V46.7998C0 48.7911 1.60875 50.3998 3.6 50.3998H11.0137C11.7225 45.0673 14.94 40.5786 19.4738 38.0923Z" fill="#006159"/>
</svg>
